# xmcd CD database file
#
# Track frame offsets:
#	150
#	22337
#	44664
#	65943
#	86858
#	107241
#	126969
#	150969
#	172724
#
# Disc length: 2646 seconds
#
# Revision: 0
# Processed by: cddbd v1.5.2PL0 Copyright (c) Steve Scherf et al.
# Submitted via: CDex 1.51
#
DISCID=7c0a5409
DTITLE=Lessing, Thomas - Why not
DYEAR=1995
DGENRE=Jazz
TTITLE0=Hit the dust
TTITLE1=Chromatic
TTITLE2=Train to Spain
TTITLE3=When my baby sleeps
TTITLE4=El Fuerte
TTITLE5=Ten Years later
TTITLE6=Why not
TTITLE7=Take a whole in my heart
TTITLE8=Take the Aircraft
EXTD=YEAR: 1995
EXTT0=
EXTT1=
EXTT2=
EXTT3=
EXTT4=
EXTT5=
EXTT6=
EXTT7=
EXTT8=
PLAYORDER=
